{
  "asset": {
    "generator": "Khronos glTF Blender I/O v4.2.60",
    "version": "2.0"
  },
  "scene": 0,
  "scenes": [
    {
      "name": "Scene",
      "nodes": [
        0
      ]
    }
  ],
  "nodes": [
    {
      "mesh": 0,
      "name": "industrial_wall_sconce",
      "translation": [
        0.001505084685049951,
        0.1513962596654892,
        0.008094342425465584
      ]
    }
  ],
  "materials": [
    {
      "doubleSided": true,
      "name": "industrial_wall_sconce",
      "normalTexture": {
        "index": 0
      },
      "pbrMetallicRoughness": {
        "baseColorTexture": {
          "index": 1
        },
        "metallicRoughnessTexture": {
          "index": 2
        }
      }
    },
    {
      "doubleSided": true,
      "name": "industrial_wall_sconce_bulb",
      "pbrMetallicRoughness": {
        "baseColorTexture": {
          "index": 3
        },
        "metallicFactor": 0,
        "metallicRoughnessTexture": {
          "index": 4
        }
      }
    }
  ],
  "meshes": [
    {
      "name": "Cube.009",
      "primitives": [
        {
          "attributes": {
            "POSITION": 0,
            "NORMAL": 1,
            "TEXCOORD_0": 2
          },
          "indices": 3,
          "material": 0
        },
        {
          "attributes": {
            "POSITION": 4,
            "NORMAL": 5,
            "TEXCOORD_0": 6
          },
          "indices": 7,
          "material": 1
        }
      ]
    }
  ],
  "textures": [
    {
      "sampler": 0,
      "source": 0
    },
    {
      "sampler": 0,
      "source": 1
    },
    {
      "sampler": 0,
      "source": 2
    },
    {
      "sampler": 0,
      "source": 3
    },
    {
      "sampler": 0,
      "source": 4
    }
  ],
  "images": [
    {
      "mimeType": "image/jpeg",
      "name": "industrial_wall_sconce_nor_gl",
      "uri": "textures/industrial_wall_sconce_nor_gl_4k.jpg"
    },
    {
      "mimeType": "image/jpeg",
      "name": "industrial_wall_sconce_diff",
      "uri": "textures/industrial_wall_sconce_diff_4k.jpg"
    },
    {
      "mimeType": "image/jpeg",
      "name": "industrial_wall_sconce_metal-industrial_wall_sconce_rough.png",
      "uri": "textures/industrial_wall_sconce_arm_4k.jpg"
    },
    {
      "mimeType": "image/jpeg",
      "name": "industrial_wall_sconce_bulb_diff",
      "uri": "textures/industrial_wall_sconce_bulb_diff_4k.jpg"
    },
    {
      "mimeType": "image/jpeg",
      "name": "industrial_wall_sconce_rough",
      "uri": "textures/industrial_wall_sconce_arm_4k.jpg"
    }
  ],
  "accessors": [
    {
      "bufferView": 0,
      "componentType": 5126,
      "count": 4929,
      "max": [
        0.0751739963889122,
        0.17087750136852264,
        0.25044819712638855
      ],
      "min": [
        -0.0751740038394928,
        -0.17090433835983276,
        -0.0011277049779891968
      ],
      "type": "VEC3"
    },
    {
      "bufferView": 1,
      "componentType": 5126,
      "count": 4929,
      "type": "VEC3"
    },
    {
      "bufferView": 2,
      "componentType": 5126,
      "count": 4929,
      "type": "VEC2"
    },
    {
      "bufferView": 3,
      "componentType": 5123,
      "count": 21390,
      "type": "SCALAR"
    },
    {
      "bufferView": 4,
      "componentType": 5126,
      "count": 1824,
      "max": [
        0.02878056839108467,
        0.005759254097938538,
        0.21408115327358246
      ],
      "min": [
        -0.032660942524671555,
        -0.09449193626642227,
        0.15263964235782623
      ],
      "type": "VEC3"
    },
    {
      "bufferView": 5,
      "componentType": 5126,
      "count": 1824,
      "type": "VEC3"
    },
    {
      "bufferView": 6,
      "componentType": 5126,
      "count": 1824,
      "type": "VEC2"
    },
    {
      "bufferView": 7,
      "componentType": 5123,
      "count": 8088,
      "type": "SCALAR"
    }
  ],
  "bufferViews": [
    {
      "buffer": 0,
      "byteLength": 59148,
      "byteOffset": 0,
      "target": 34962
    },
    {
      "buffer": 0,
      "byteLength": 59148,
      "byteOffset": 59148,
      "target": 34962
    },
    {
      "buffer": 0,
      "byteLength": 39432,
      "byteOffset": 118296,
      "target": 34962
    },
    {
      "buffer": 0,
      "byteLength": 42780,
      "byteOffset": 157728,
      "target": 34963
    },
    {
      "buffer": 0,
      "byteLength": 21888,
      "byteOffset": 200508,
      "target": 34962
    },
    {
      "buffer": 0,
      "byteLength": 21888,
      "byteOffset": 222396,
      "target": 34962
    },
    {
      "buffer": 0,
      "byteLength": 14592,
      "byteOffset": 244284,
      "target": 34962
    },
    {
      "buffer": 0,
      "byteLength": 16176,
      "byteOffset": 258876,
      "target": 34963
    }
  ],
  "samplers": [
    {
      "magFilter": 9729,
      "minFilter": 9987
    }
  ],
  "buffers": [
    {
      "byteLength": 275052,
      "uri": "industrial_wall_sconce.bin"
    }
  ]
}